<?xml version="1.0" encoding="UTF-8" standalone="no"?>
<svg
   version="1.1"
   width="836"
   height="836"
   id="svg7"
   sodipodi:docname="favicon.svg"
   inkscape:version="1.3.2 (091e20e, 2023-11-25, custom)"
   inkscape:export-filename="favicon.png"
   inkscape:export-xdpi="96"
   inkscape:export-ydpi="96"
   xmlns:inkscape="http://www.inkscape.org/namespaces/inkscape"
   xmlns:sodipodi="http://sodipodi.sourceforge.net/DTD/sodipodi-0.dtd"
   xmlns="http://www.w3.org/2000/svg"
   xmlns:svg="http://www.w3.org/2000/svg">
  <defs
     id="defs7" />
  <sodipodi:namedview
     id="namedview7"
     pagecolor="#ffffff"
     bordercolor="#000000"
     borderopacity="0.25"
     inkscape:showpageshadow="2"
     inkscape:pageopacity="0.0"
     inkscape:pagecheckerboard="0"
     inkscape:deskcolor="#d1d1d1"
     inkscape:zoom="0.5"
     inkscape:cx="144"
     inkscape:cy="673"
     inkscape:window-width="1920"
     inkscape:window-height="1111"
     inkscape:window-x="-9"
     inkscape:window-y="-9"
     inkscape:window-maximized="1"
     inkscape:current-layer="svg7" />
  <path
     style="fill:#f5fbf4;fill-opacity:1"
     d="M 97.54866,266.99847 C 57.998001,255.8049 18.447344,264.01352 8,270.35655 c 7.835508,17.1635 21.802807,34.04571 28.730195,55.59479 6.34303,18.28286 20.521567,63.4303 46.639925,79.47444 27.61084,5.59679 14.17854,-138.42731 14.17854,-138.42731 z"
     id="path9"
     inkscape:label="leaf_2_surround"
     sodipodi:nodetypes="ccccc" />
  <path
     style="fill:#f5fbf4;fill-opacity:1"
     d="m 724.4304,540.80719 c 9.40233,-42.72133 11.43966,-59.7943 19.47721,-114.58194 30.14767,4.71476 62.82763,9.96493 90.92221,19.62494 -11.48072,41.8479 -80.54987,95.41611 -110.39942,94.957 z"
     id="path8"
     sodipodi:nodetypes="cccc"
     inkscape:label="plant_surround" />
  <ellipse
     style="display:inline;fill:#f5fbf4;fill-opacity:1;stroke-width:0.954865"
     id="path7"
     cx="410.94391"
     cy="421.61646"
     rx="343.51352"
     ry="383.61646"
     inkscape:label="surround" />
  <path
     d="m 566.49137,154.04202 c 48.53058,42.29138 70.07391,79.09089 72.56319,83.82542 -8.35851,5.31694 -22.82833,13.5983 -33.44272,18.69369 -29.15402,-52.41519 -67.41186,-88.63168 -119,-111 -30.2393,-13.17306 -125.28228,-42.8848 -227,46 -24.90362,31.47444 -141.63658,142.70642 -88.37301,336.83247 18.01477,58.1687 56.56334,111.53975 106.72115,147.96441 18.69722,14.72691 46.97118,32.19745 93.10889,40.85156 104.57588,13.93519 174.88985,-43.77784 247.39005,-109.09765 28.27734,0.0943 16.30497,-0.32352 44.81755,-0.33972 C 596.2071,714.38467 488.42037,766.6927 367.64973,758.25879 295.05026,749.395 239.45707,713.80976 195.28967,660.07288 149.05065,602.59469 120.12494,535.6982 121.93039,433.01558 c 7.65504,-103.70841 6.24274,-161.67517 114.6847,-274.16057 88.87917,-81.705727 219.77813,-98.194813 329.87628,-4.81299 z"
     fill="#000000"
     id="path1"
     sodipodi:nodetypes="ccccccccccccccc"
     inkscape:label="G" />
  <path
     d="m 499.6347,408.91905 c 91.21077,-1.70389 115.88182,50.97691 113.79074,80.25205 -23.291,-19.962 -50.37863,-31.31704 -81,-34 33.91483,10.03479 66.56839,27.82626 85,59 4.50413,-22.24254 14.4901,-41.14941 30.16797,-57.22266 20.71365,-20.16958 52.4572,-22.927 79.83203,-22.77734 33.7787,0.68841 67.24849,8.29687 100,16 -46.13608,62.99435 -90.04084,96.62128 -170.50777,97.39168 -11.44255,44.82972 5.15056,37.30651 6.36417,60.21567 l -44.8564,0.39267 c -2.83026,-11.18827 7.59539,-43.64629 -14,-75 -42.45834,7.77621 -71.71378,13.857 -111,-12 -29.49886,-21.51163 -44.09491,-67.75517 -86,-101 29.90854,-1.4706 62.63221,-11.22639 92.20926,-11.25205 z"
     fill="#5fac41"
     id="path2"
     sodipodi:nodetypes="ccccccccccczccc"
     inkscape:label="plant" />
  <path
     d="m 726.42544,467.17105 c -2.64492,2.64491 -5.04207,3.04635 -8.625,4.125 -36.49378,11.64355 -63.30387,41.85261 -68.375,47.875 -6.00736,6.9937 -11.99955,14.00037 -18,21 -1,-2 -1,-2 -0.25,-4.39844 12.24758,-29.16455 33.95753,-48.40686 62.70166,-60.59961 10.0095,-3.93552 21.67418,-8.31264 32.54834,-8.00195 z"
     fill="#f6fbf5"
     id="path6"
     sodipodi:nodetypes="ccccccc"
     inkscape:label="plant_hollow" />
  <path
     d="m 334.61184,475.56113 c -1.47728,3.82646 -3.20751,7.0507 -5.4375,10.5 -12.27038,19.6137 -20.68248,40.19628 -27.66016,62.17969 -11.10484,34.98074 -20.7728,57.01187 -43.34375,79.77392 -7.58363,7.53874 -7.58363,7.53874 -10.55078,7.56201 -14.31202,-10.29483 -22.28965,-27.75598 -31.80176,-42.4519 -4.29451,-7.11433 -4.29451,-7.11433 -4.05688,-11.00781 0.74202,-2.35473 1.68229,-4.38333 2.85083,-6.55591 7.39172,-16.29818 16.83597,-29.77846 36,-48 -19.12234,11.05823 -31.33558,29.72516 -41,49 -3.61592,-1.20531 -3.7805,-1.89457 -5.48828,-5.16406 -12.97371,-24.66946 -12.0077,-26.72083 -15.69922,-34.26172 -1.05716,-2.58154 -1.3368,-3.81594 -0.8125,-6.57422 8.76074,-14.93429 29.18374,-41.35278 97.03076,-53.35938 16.42648,-2.7425 33.37829,-1.82633 49.96924,-1.64062 z"
     fill="#5eac41"
     id="path3"
     sodipodi:nodetypes="ccccccccccccccc"
     inkscape:label="leaf_1" />
  <path
     d="m 127.73877,288.52727 1.92041,0.97168 c 4.18469,2.27105 4.18469,2.27105 5.26392,4.54931 -4.97456,12.34636 -9.28125,21.33094 -12.80933,36.29151 -6.7761,-7.95434 -13.15085,-11.32204 -21,-15 5.47806,4.7135 10.59311,9.81575 15.86792,14.74585 2.7751,2.98537 4.11256,5.01645 4.17798,9.16479 -4.8271,22.09821 -6.63623,44.54864 -8.0459,67.08936 C 94.058717,401.48351 80.021557,391.25927 69.86572,374.24943 62.380603,361.24052 56.699983,347.49223 50.983518,333.65211 28.530963,278.48335 19.300327,280.76978 16.128806,273.45912 c 37.21441,-4.81294 77.900914,-2.33905 111.609964,15.06815 z"
     fill="#5ead41"
     id="path4"
     sodipodi:nodetypes="cccccccccccc"
     inkscape:label="leaf_2" />
  <path
     d="m 271.45624,196.07684 c 20.0031,-16.86357 22.77338,-19.17213 32.64808,-16.51571 19.31716,10.29566 53,44.27099 53,54 -36.59856,9.98105 -35.54322,12.61941 -50.74139,18.17318 -28.08844,10.30212 -49.09986,5.12588 -76.25861,-6.17318 2.86417,-8.8447 28.46472,-40.59054 35.69408,-43.78736 7.77633,-0.33574 21.56691,11.08704 32.60316,11.10608 -15.57385,-5.12795 -21.03111,-11.5532 -26.94532,-16.80301 z"
     fill="#5eab41"
     id="path5"
     sodipodi:nodetypes="cccccccc"
     inkscape:label="leaf_3" />
</svg>
