<svg xmlns="http://www.w3.org/2000/svg" width="836" height="836"><g fill="#f5fbf4"><path d="M97.549 266.998C57.998 255.805 18.447 264.014 8 270.357c7.836 17.164 21.803 34.046 28.73 55.595 6.343 18.283 20.522 63.43 46.64 79.474 27.611 5.597 14.179-138.427 14.179-138.427zM724.43 540.807c9.402-42.721 11.44-59.794 19.477-114.582 30.148 4.715 62.828 9.965 90.922 19.625-11.481 41.848-80.55 95.416-110.399 94.957z"/><ellipse cx="410.944" cy="421.616" rx="343.514" ry="383.616"/></g><path d="M566.491 154.042c48.531 42.291 70.074 79.091 72.563 83.825-8.359 5.317-22.828 13.598-33.443 18.694-29.154-52.415-67.412-88.632-119-111-30.239-13.173-125.282-42.885-227 46-24.904 31.474-141.637 142.706-88.373 336.832 18.015 58.169 56.563 111.54 106.721 147.964 18.697 14.727 46.971 32.197 93.109 40.852 104.576 13.935 174.89-43.778 247.39-109.098l44.818-.34C596.207 714.385 488.42 766.693 367.65 758.259c-72.599-8.864-128.193-44.449-172.36-98.186-46.239-57.478-75.165-124.375-73.359-227.057 7.655-103.708 6.243-161.675 114.685-274.161 88.879-81.706 219.778-98.195 329.876-4.813z"/><path d="M499.635 408.919c91.211-1.704 115.882 50.977 113.791 80.252-23.291-19.962-50.379-31.317-81-34 33.915 10.035 66.568 27.826 85 59 4.504-22.243 14.49-41.149 30.168-57.223 20.714-20.17 52.457-22.927 79.832-22.777 33.779.688 67.248 8.297 100 16-46.136 62.994-90.041 96.621-170.508 97.392-11.443 44.83 5.151 37.307 6.364 60.216l-44.856.393c-2.83-11.188 7.595-43.646-14-75-42.458 7.776-71.714 13.857-111-12-29.499-21.512-44.095-67.755-86-101 29.909-1.471 62.632-11.226 92.209-11.252z" fill="#5fac41"/><path d="M726.425 467.171c-2.645 2.645-5.042 3.046-8.625 4.125-36.494 11.644-63.304 41.853-68.375 47.875l-18 21c-1-2-1-2-.25-4.398 12.248-29.165 33.958-48.407 62.702-60.6 10.01-3.936 21.674-8.313 32.548-8.002z" fill="#f6fbf5"/><path d="M334.612 475.561c-1.477 3.826-3.208 7.051-5.437 10.5-12.27 19.614-20.682 40.196-27.66 62.18-11.105 34.981-20.773 57.012-43.344 79.774-7.584 7.539-7.584 7.539-10.551 7.562-14.312-10.295-22.29-27.756-31.802-42.452-4.295-7.114-4.295-7.114-4.057-11.008.742-2.355 1.682-4.383 2.851-6.556 7.392-16.298 16.836-29.778 36-48-19.122 11.058-31.336 29.725-41 49-3.616-1.205-3.78-1.895-5.488-5.164-12.974-24.669-12.008-26.721-15.699-34.262-1.057-2.582-1.337-3.816-.812-6.574 8.761-14.934 29.184-41.353 97.031-53.359 16.426-2.743 33.378-1.826 49.969-1.641z" fill="#5eac41"/><path d="M127.739 288.527l1.92.972c4.185 2.271 4.185 2.271 5.264 4.549-4.975 12.346-9.281 21.331-12.809 36.292-6.776-7.954-13.151-11.322-21-15 5.478 4.714 10.593 9.816 15.868 14.746 2.775 2.985 4.113 5.016 4.178 9.165-4.827 22.098-6.636 44.549-8.046 67.089-19.055-4.856-33.092-15.08-43.248-32.09-7.485-13.009-13.166-26.757-18.882-40.597-22.453-55.169-31.683-52.882-34.855-60.193 37.214-4.813 77.901-2.339 111.61 15.068z" fill="#5ead41"/><path d="M271.456 196.077c20.003-16.864 22.773-19.172 32.648-16.516 19.317 10.296 53 44.271 53 54-36.599 9.981-35.543 12.619-50.741 18.173-28.088 10.302-49.1 5.126-76.259-6.173 2.864-8.845 28.465-40.591 35.694-43.787 7.776-.336 21.567 11.087 32.603 11.106-15.574-5.128-21.031-11.553-26.945-16.803z" fill="#5eab41"/></svg>